<svg xmlns="http://www.w3.org/2000/svg" viewBox="0 0 706 1073" width="706" height="1073"><defs><linearGradient id="grd1" gradientUnits="userSpaceOnUse"  x1="11740.171" y1="5161.301" x2="7902.727" y2="7544.531"><stop offset="0" stop-color="#78b46a"  /><stop offset="3" stop-color="#7f3500"  /><stop offset="100" stop-color="#ffffff"  /></linearGradient><linearGradient id="grd2" gradientUnits="userSpaceOnUse"  x1="12848.17" y1="3250.535" x2="4745.285" y2="6355.64"><stop offset="0" stop-color="#78b46a"  /><stop offset="3" stop-color="#7f3500"  /><stop offset="100" stop-color="#ffffff"  /></linearGradient><linearGradient id="grd3" gradientUnits="userSpaceOnUse"  x1="7549.72" y1="1813.181" x2="2063.318" y2="4678.527"><stop offset="0" stop-color="#78b46a"  /><stop offset="3" stop-color="#7f3500"  /><stop offset="100" stop-color="#ffffff"  /></linearGradient><linearGradient id="grd4" gradientUnits="userSpaceOnUse"  x1="18948.188" y1="7832.344" x2="15831.029" y2="7176.627"><stop offset="0" stop-color="#ffffff" stop-opacity="0" /><stop offset="99" stop-color="#dc841e"  /></linearGradient><linearGradient id="grd5" gradientUnits="userSpaceOnUse"  x1="12645.845" y1="3109.246" x2="4545.413" y2="6370.243"><stop offset="0" stop-color="#78b46a"  /><stop offset="3" stop-color="#7f3500"  /><stop offset="100" stop-color="#ffffff"  /></linearGradient></defs><style>tspan { white-space:pre }.shp0 { fill: none;stroke: #1e1f36 } .shp1 { fill: #6862e6 } .shp2 { fill: #5b36a0 } .shp3 { opacity: 0.251;mix-blend-mode: multiply;fill: url(#grd1) } .shp4 { opacity: 0.251;mix-blend-mode: multiply;fill: url(#grd2) } .shp5 { opacity: 0.459;mix-blend-mode: multiply;fill: url(#grd3) } .shp6 { fill: #68e1fd } .shp7 { fill: #974c26 } .shp8 { fill: #999a1c } .shp9 { fill: #a1482d } .shp10 { fill: #f47b56 } .shp11 { fill: #ffffff } .shp12 { fill: #ab643c } .shp13 { opacity: 0.322;fill: url(#grd4) } .shp14 { fill: #e2ac00 } .shp15 { fill: #f2f2f2 } .shp16 { fill: #ff8f6f } .shp17 { fill: #003b94 } .shp18 { fill: #3e2928 } .shp19 { fill: #ffb5a9 } .shp20 { fill: #007f68 } .shp21 { opacity: 0.459;mix-blend-mode: multiply;fill: url(#grd5) } </style><g style="opacity: 0.098"><path class="shp0" d="M78.75 405.35L-370.26 139.73C-384.55 131.68 -396.8 118.5 -382.88 109.85L67.73 -150.11C74.49 -154.3 84.75 -157.06 91.64 -153.05L562.9 120.78C577.2 129.09 579.76 152.23 565.52 160.62L137.92 404.93C133.46 407.53 128.67 409.53 123.69 410.89C118.7 412.25 113.56 412.96 108.4 413C103.23 413.04 98.08 412.4 93.08 411.11C88.07 409.82 83.26 407.88 78.75 405.35L78.75 405.35Z" /><path class="shp0" d="M78.75 480.35L-370.26 214.73C-384.55 206.68 -396.8 193.5 -382.88 184.85L67.73 -75.11C74.49 -79.3 84.75 -82.06 91.64 -78.05L562.9 195.78C577.2 204.09 579.76 227.23 565.52 235.62L137.92 479.93C133.46 482.53 128.67 484.53 123.69 485.89C118.7 487.25 113.56 487.96 108.4 488C103.23 488.04 98.08 487.4 93.08 486.11C88.07 484.82 83.26 482.88 78.75 480.35L78.75 480.35Z" /><path class="shp1" d="M49.23 1050.62L-545.04 699.07C-563.96 688.42 -580.17 670.97 -561.74 659.53L34.64 315.47C43.58 309.92 57.16 306.28 66.27 311.58L689.99 673.99C708.91 684.99 712.3 715.62 693.46 726.72L127.54 1050.07C121.62 1053.5 115.29 1056.15 108.69 1057.95C102.1 1059.75 95.29 1060.69 88.45 1060.74C81.62 1060.79 74.8 1059.95 68.18 1058.24C61.56 1056.53 55.19 1053.97 49.23 1050.62L49.23 1050.62Z" /></g><g ><path class="shp2" d="M272.52 790.67L-119.7 558.6C-132.19 551.57 -142.89 540.05 -130.73 532.5L262.89 305.38C268.79 301.72 277.76 299.31 283.77 302.81L695.43 542.05C707.92 549.31 710.16 569.52 697.72 576.85L324.21 790.3C320.31 792.57 316.12 794.32 311.77 795.51C307.42 796.7 302.93 797.32 298.41 797.35C293.9 797.38 289.4 796.82 285.03 795.7C280.66 794.57 276.46 792.88 272.52 790.67L272.52 790.67Z" /><path class="shp1" d="M272.52 779.96L-119.7 547.89C-132.19 540.86 -142.89 529.34 -130.73 521.79L262.89 294.67C268.79 291.01 277.76 288.6 283.77 292.1L695.43 531.34C707.92 538.59 710.16 558.81 697.72 566.14L324.21 779.59C320.31 781.86 316.12 783.61 311.77 784.8C307.42 785.99 302.93 786.6 298.41 786.64C293.9 786.67 289.4 786.11 285.03 784.99C280.66 783.86 276.46 782.17 272.52 779.96L272.52 779.96Z" /><path class="shp3" d="M304.86 473.77L227.46 517.99C227.46 517.99 346.69 590.82 371.07 601.08L415.64 536.97" /><path class="shp4" d="M278.12 685.89L200.71 641.77L123.29 685.98C123.29 685.98 163.61 710.62 202.15 733.25C226.62 715.91 251.11 698.4 278.12 685.89L278.12 685.89Z" /><path class="shp5" d="M111.33 413.41L62.23 441.46C62.23 441.46 66.39 467.18 90.77 477.44L155.06 436.22" /><path class="shp6" d="M135.37 441.46C118.99 441.46 105.75 432.13 105.75 420.58C105.75 409.03 118.99 399.7 135.37 399.7C151.75 399.7 164.98 409.03 164.98 420.58C164.98 432.13 151.75 441.46 135.37 441.46Z" /><path class="shp7" d="M135.34 417.35C123.08 417.35 113.16 413.29 113.16 408.26C113.16 403.24 123.08 399.17 135.34 399.17C147.61 399.17 157.53 403.24 157.53 408.26C157.53 413.29 147.61 417.35 135.34 417.35Z" /><path fill-rule="evenodd" class="shp8" d="M134.54 393.1C134.52 398.23 134.27 403.36 133.72 408.47C133.26 407.82 132.8 407.18 132.34 406.52C131.89 405.87 131.44 405.22 131 404.56C130.55 403.9 130.11 403.24 129.68 402.57C129.25 401.91 128.82 401.24 128.39 400.57C127.8 399.65 127.22 398.72 126.66 397.79C126.09 396.86 125.53 395.92 124.98 394.98C124.44 394.03 123.9 393.08 123.37 392.12C122.85 391.17 122.33 390.2 121.83 389.24C121.36 388.38 120.91 387.51 120.48 386.63C120.04 385.75 119.63 384.86 119.23 383.97C118.83 383.08 118.45 382.17 118.08 381.27C117.72 380.36 117.38 379.44 117.05 378.52C116.68 377.52 116.34 376.51 116.01 375.49C115.68 374.48 115.37 373.46 115.08 372.43C114.79 371.41 114.51 370.38 114.26 369.34C114 368.31 113.77 367.27 113.55 366.22C113.32 365.22 113.12 364.02 112.93 362.93L112.93 361.58C112.75 359.42 112.57 357.13 112.57 354.84C112.54 352.9 112.61 350.96 112.79 349.03C112.96 347.1 113.23 345.17 113.61 343.27C113.98 341.36 114.44 339.48 115.01 337.62C115.57 335.77 116.23 333.94 116.98 332.15C118.98 335.05 120.81 338.05 122.48 341.14C124.16 344.24 125.66 347.42 126.99 350.68C128.32 353.93 129.47 357.26 130.44 360.64C131.42 364.02 132.2 367.45 132.81 370.92C132.96 371.74 133.1 372.57 133.24 373.41C133.24 373.25 133.56 374.92 133.56 375.54L133.79 377.63C133.9 378.68 134 379.74 134.09 380.81C134.41 384.91 134.54 389 134.54 393.1ZM122.9 347.01C122.9 347.01 122.9 347.01 122.9 347.01C122.9 347.01 122.89 347.01 122.88 347.01L122.9 347.01ZM122.9 347.01C123.04 347 123.17 347 123.31 347C123.45 347.01 123.59 347.02 123.73 347.03C123.88 347.05 124.02 347.07 124.16 347.1C124.3 347.12 124.44 347.16 124.57 347.2C124.02 346.58 123.47 345.99 122.9 345.41C122.93 345.54 122.95 345.67 122.97 345.81C122.98 345.94 122.99 346.08 122.99 346.21C122.99 346.35 122.98 346.48 122.97 346.61C122.96 346.75 122.93 346.88 122.9 347.01Z" /><path fill-rule="evenodd" class="shp8" d="M142.16 396.26C139.39 400.59 136.33 404.76 133.29 408.81C133.08 405.81 133.08 402.7 133.08 399.29C133.08 398.2 133.09 397.1 133.11 396.01C133.14 394.92 133.17 393.83 133.22 392.74C133.27 391.65 133.34 390.56 133.41 389.47C133.49 388.39 133.57 387.3 133.68 386.21C133.75 385.24 133.84 384.26 133.94 383.29C134.05 382.31 134.18 381.34 134.33 380.37C134.47 379.41 134.64 378.44 134.83 377.48C135.01 376.52 135.21 375.56 135.44 374.6C135.67 373.56 135.92 372.53 136.19 371.49C136.46 370.46 136.75 369.43 137.06 368.41C137.37 367.39 137.69 366.37 138.03 365.36C138.38 364.35 138.74 363.35 139.12 362.35C139.53 361.3 139.97 360.27 140.4 359.24L140.51 358.87L140.97 358.03C141.23 357.53 141.49 357.03 141.75 356.54C142.02 356.04 142.29 355.55 142.57 355.06C142.84 354.57 143.13 354.09 143.41 353.6C143.7 353.12 143.99 352.64 144.29 352.16C145.32 350.52 146.43 348.92 147.62 347.39C148.81 345.85 150.08 344.38 151.43 342.98C152.77 341.58 154.19 340.24 155.67 338.99C157.15 337.73 158.69 336.55 160.3 335.45C160.41 338.97 160.34 342.49 160.07 346C159.81 349.51 159.36 353.01 158.72 356.47C158.08 359.93 157.25 363.36 156.24 366.73C155.23 370.1 154.05 373.42 152.68 376.66L151.7 378.95L150.8 380.92L149.87 382.82C149.39 383.77 148.91 384.72 148.4 385.66C147.93 386.57 147.45 387.48 146.95 388.37C146.45 389.27 145.94 390.16 145.42 391.05C144.9 391.93 144.37 392.81 143.83 393.68C143.28 394.55 142.73 395.41 142.16 396.26ZM157.25 351.18C157.7 351.42 158.11 351.72 158.47 352.07C158.34 351.34 158.2 350.58 158.03 349.78C157.88 350.3 157.61 350.78 157.25 351.18L157.25 351.18Z" /><path fill-rule="evenodd" class="shp8" d="M142 406.48C139.12 407.92 136.17 409.2 133.22 410.44C133.45 410 133.69 409.56 133.93 409.12C134.16 408.68 134.41 408.24 134.65 407.81C134.9 407.37 135.15 406.94 135.4 406.51C135.65 406.07 135.91 405.64 136.17 405.22C136.53 404.63 136.9 404.05 137.28 403.48C137.65 402.9 138.03 402.32 138.41 401.75C138.79 401.18 139.17 400.61 139.56 400.04C139.95 399.47 140.34 398.91 140.74 398.35C141.09 397.84 141.46 397.34 141.83 396.85C142.2 396.36 142.58 395.88 142.97 395.4C143.37 394.93 143.77 394.46 144.18 394C144.59 393.54 145 393.09 145.43 392.65C145.89 392.16 146.36 391.68 146.84 391.21C147.32 390.74 147.81 390.28 148.31 389.83C148.8 389.37 149.31 388.93 149.82 388.5C150.33 388.06 150.85 387.64 151.38 387.22L153.07 385.96L153.25 385.8L153.78 385.48C154.99 384.75 156.2 384.04 157.46 383.4C158.54 382.84 159.66 382.34 160.79 381.89C161.93 381.45 163.08 381.06 164.26 380.74C165.43 380.41 166.62 380.15 167.83 379.95C169.03 379.74 170.24 379.6 171.46 379.53C170.39 381.46 169.21 383.33 167.94 385.14C166.66 386.95 165.29 388.69 163.83 390.35C162.37 392.01 160.83 393.59 159.2 395.08C157.57 396.57 155.86 397.98 154.08 399.29L152.8 400.23L151.7 401L150.57 401.71L148.86 402.77C148.3 403.1 147.74 403.42 147.17 403.74C146.6 404.06 146.03 404.37 145.46 404.68C144.89 404.99 144.32 405.29 143.74 405.59C143.16 405.89 142.58 406.19 142 406.48L142 406.48ZM164.69 387.04C164.72 387.11 164.76 387.18 164.79 387.26C164.83 387.33 164.85 387.4 164.88 387.48C164.91 387.56 164.93 387.64 164.95 387.71C164.97 387.79 164.99 387.87 165.01 387.95C165.21 387.48 165.39 387 165.56 386.51C165.49 386.57 165.43 386.62 165.36 386.67C165.29 386.72 165.22 386.77 165.15 386.81C165.08 386.85 165 386.89 164.92 386.93C164.85 386.96 164.77 386.99 164.69 387.01L164.69 387.04ZM134.54 393.1C134.52 398.23 134.27 403.36 133.72 408.47C133.26 407.82 132.8 407.18 132.34 406.52C131.89 405.87 131.44 405.22 131 404.56C130.55 403.9 130.11 403.24 129.68 402.57C129.25 401.91 128.82 401.24 128.39 400.57C127.8 399.65 127.22 398.72 126.66 397.79C126.09 396.86 125.53 395.92 124.98 394.98C124.44 394.03 123.9 393.08 123.37 392.12C122.85 391.17 122.33 390.2 121.83 389.24C121.36 388.38 120.91 387.51 120.48 386.63C120.04 385.75 119.63 384.86 119.23 383.97C118.83 383.08 118.45 382.17 118.08 381.27C117.72 380.36 117.38 379.44 117.05 378.52C116.68 377.52 116.34 376.51 116.01 375.49C115.68 374.48 115.37 373.46 115.08 372.43C114.79 371.41 114.51 370.38 114.26 369.34C114 368.31 113.77 367.27 113.55 366.22C113.32 365.22 113.12 364.02 112.93 362.93L112.93 361.58C112.75 359.42 112.57 357.13 112.57 354.84C112.54 352.9 112.61 350.96 112.79 349.03C112.96 347.1 113.23 345.17 113.61 343.27C113.98 341.36 114.44 339.48 115.01 337.62C115.57 335.77 116.23 333.94 116.98 332.15C118.98 335.05 120.81 338.05 122.48 341.14C124.16 344.24 125.66 347.42 126.99 350.68C128.32 353.93 129.47 357.26 130.44 360.64C131.42 364.02 132.2 367.45 132.81 370.92C132.96 371.74 133.1 372.57 133.24 373.41C133.24 373.25 133.56 374.92 133.56 375.54L133.79 377.63C133.9 378.68 134 379.74 134.09 380.81C134.41 384.91 134.54 389 134.54 393.1ZM122.9 347.01C122.9 347.01 122.9 347.01 122.9 347.01C122.9 347.01 122.89 347.01 122.88 347.01L122.9 347.01ZM122.9 347.01C123.04 347 123.17 347 123.31 347C123.45 347.01 123.59 347.02 123.73 347.03C123.88 347.05 124.02 347.07 124.16 347.1C124.3 347.12 124.44 347.16 124.57 347.2C124.02 346.58 123.47 345.99 122.9 345.41C122.93 345.54 122.95 345.67 122.97 345.81C122.98 345.94 122.99 346.08 122.99 346.21C122.99 346.35 122.98 346.48 122.97 346.61C122.96 346.75 122.93 346.88 122.9 347.01Z" /><path fill-rule="evenodd" class="shp8" d="M142.16 396.26C139.39 400.59 136.33 404.76 133.29 408.81C133.08 405.81 133.08 402.7 133.08 399.29C133.08 398.2 133.09 397.1 133.11 396.01C133.14 394.92 133.17 393.83 133.22 392.74C133.27 391.65 133.34 390.56 133.41 389.47C133.49 388.39 133.57 387.3 133.68 386.21C133.75 385.24 133.84 384.26 133.94 383.29C134.05 382.31 134.18 381.34 134.33 380.37C134.47 379.41 134.64 378.44 134.83 377.48C135.01 376.52 135.21 375.56 135.44 374.6C135.67 373.56 135.92 372.53 136.19 371.49C136.46 370.46 136.75 369.43 137.06 368.41C137.37 367.39 137.69 366.37 138.03 365.36C138.38 364.35 138.74 363.35 139.12 362.35C139.53 361.3 139.97 360.27 140.4 359.24L140.51 358.87L140.97 358.03C141.23 357.53 141.49 357.03 141.75 356.54C142.02 356.04 142.29 355.55 142.57 355.06C142.84 354.57 143.13 354.09 143.41 353.6C143.7 353.12 143.99 352.64 144.29 352.16C145.32 350.52 146.43 348.92 147.62 347.39C148.81 345.85 150.08 344.38 151.43 342.98C152.77 341.58 154.19 340.24 155.67 338.99C157.15 337.73 158.69 336.55 160.3 335.45C160.41 338.97 160.34 342.49 160.07 346C159.81 349.51 159.36 353.01 158.72 356.47C158.08 359.93 157.25 363.36 156.24 366.73C155.23 370.1 154.05 373.42 152.68 376.66L151.7 378.95L150.8 380.92L149.87 382.82C149.39 383.77 148.91 384.72 148.4 385.66C147.93 386.57 147.45 387.48 146.95 388.37C146.45 389.27 145.94 390.16 145.42 391.05C144.9 391.93 144.37 392.81 143.83 393.68C143.28 394.55 142.73 395.41 142.16 396.26ZM157.25 351.18C157.7 351.42 158.11 351.72 158.47 352.07C158.34 351.34 158.2 350.58 158.03 349.78C157.88 350.3 157.61 350.78 157.25 351.18L157.25 351.18Z" /><path fill-rule="evenodd" class="shp8" d="M142 406.48C139.12 407.92 136.17 409.2 133.22 410.44C133.45 410 133.69 409.56 133.93 409.12C134.16 408.68 134.41 408.24 134.65 407.81C134.9 407.37 135.15 406.94 135.4 406.51C135.65 406.07 135.91 405.64 136.17 405.22C136.53 404.63 136.9 404.05 137.28 403.48C137.65 402.9 138.03 402.32 138.41 401.75C138.79 401.18 139.17 400.61 139.56 400.04C139.95 399.47 140.34 398.91 140.74 398.35C141.09 397.84 141.46 397.34 141.83 396.85C142.2 396.36 142.58 395.88 142.97 395.4C143.37 394.93 143.77 394.46 144.18 394C144.59 393.54 145 393.09 145.43 392.65C145.89 392.16 146.36 391.68 146.84 391.21C147.32 390.74 147.81 390.28 148.31 389.83C148.8 389.37 149.31 388.93 149.82 388.5C150.33 388.06 150.85 387.64 151.38 387.22L153.07 385.96L153.25 385.8L153.78 385.48C154.99 384.75 156.2 384.04 157.46 383.4C158.54 382.84 159.66 382.34 160.79 381.89C161.93 381.45 163.08 381.06 164.26 380.74C165.43 380.41 166.62 380.15 167.83 379.95C169.03 379.74 170.24 379.6 171.46 379.53C170.39 381.46 169.21 383.33 167.94 385.14C166.66 386.95 165.29 388.69 163.83 390.35C162.37 392.01 160.83 393.59 159.2 395.08C157.57 396.57 155.86 397.98 154.08 399.29L152.8 400.23L151.7 401L150.57 401.71L148.86 402.77C148.3 403.1 147.74 403.42 147.17 403.74C146.6 404.06 146.03 404.37 145.46 404.68C144.89 404.99 144.32 405.29 143.74 405.59C143.16 405.89 142.58 406.19 142 406.48L142 406.48ZM164.69 387.04C164.72 387.11 164.76 387.18 164.79 387.26C164.83 387.33 164.85 387.4 164.88 387.48C164.91 387.56 164.93 387.64 164.95 387.71C164.97 387.79 164.99 387.87 165.01 387.95C165.21 387.48 165.39 387 165.56 386.51C165.49 386.57 165.43 386.62 165.36 386.67C165.29 386.72 165.22 386.77 165.15 386.81C165.08 386.85 165 386.89 164.92 386.93C164.85 386.96 164.77 386.99 164.69 387.01L164.69 387.04Z" /><path class="shp9" d="M335.59 456.51L292.76 477.11C291.15 477.89 289.77 479.09 288.79 480.59C287.81 482.09 287.25 483.83 287.18 485.62C287.11 487.41 287.53 489.19 288.39 490.76C289.25 492.33 290.53 493.64 292.07 494.54L393.59 553.84C394.68 554.48 395.88 554.9 397.13 555.09C398.37 555.27 399.64 555.21 400.87 554.92C402.09 554.63 403.25 554.1 404.27 553.37C405.3 552.64 406.18 551.72 406.86 550.66L431.54 512.24" /><path class="shp10" d="M568.57 357.11L227.01 160.05C225.84 159.38 224.59 158.87 223.29 158.52C221.99 158.17 220.65 158 219.31 158C217.96 158 216.62 158.18 215.32 158.53C214.02 158.88 212.77 159.4 211.61 160.07C210.44 160.75 209.37 161.57 208.42 162.52C207.47 163.48 206.64 164.55 205.97 165.72C205.3 166.89 204.78 168.14 204.43 169.44C204.09 170.74 203.91 172.08 203.91 173.43L203.91 378.43C203.91 379.55 204.06 380.66 204.35 381.75C204.64 382.83 205.07 383.87 205.62 384.84C206.18 385.81 206.87 386.7 207.66 387.49C208.45 388.29 209.34 388.97 210.31 389.53L574.45 599.98C575.08 600.34 575.75 600.62 576.44 600.81C577.14 601 577.86 601.1 578.58 601.1C579.31 601.1 580.03 601 580.72 600.81C581.42 600.63 582.09 600.35 582.72 599.99C583.35 599.63 583.92 599.18 584.43 598.67C584.94 598.16 585.38 597.58 585.74 596.95C586.11 596.33 586.38 595.66 586.57 594.96C586.75 594.26 586.85 593.54 586.85 592.81L586.85 388.66C586.84 385.48 586.42 382.3 585.6 379.23C584.77 376.15 583.54 373.19 581.94 370.43C580.35 367.68 578.39 365.14 576.14 362.89C573.88 360.64 571.34 358.7 568.57 357.11L568.57 357.11Z" /><path class="shp11" d="M227.03 175.56L558.28 366.36C560.04 367.38 561.66 368.62 563.1 370.06C564.54 371.5 565.78 373.12 566.8 374.88C567.82 376.64 568.6 378.52 569.13 380.49C569.65 382.45 569.92 384.48 569.92 386.51L569.92 540.17C569.92 540.91 569.82 541.63 569.63 542.34C569.44 543.05 569.16 543.73 568.8 544.36C568.43 544.99 567.98 545.58 567.47 546.1C566.95 546.61 566.37 547.06 565.74 547.43C565.1 547.8 564.43 548.08 563.72 548.27C563.01 548.46 562.29 548.56 561.56 548.56C560.82 548.56 560.1 548.47 559.39 548.28C558.68 548.1 558 547.82 557.37 547.46L219.55 353.47C218.92 353.11 218.34 352.66 217.83 352.15C217.31 351.64 216.87 351.06 216.51 350.43C216.14 349.8 215.86 349.13 215.67 348.43C215.49 347.73 215.39 347.01 215.39 346.28L215.39 182.31C215.39 179.53 216.87 176.97 219.27 175.58C219.85 175.24 220.48 174.97 221.14 174.8C221.79 174.62 222.47 174.53 223.15 174.53C223.83 174.52 224.5 174.61 225.16 174.79C225.81 174.96 226.44 175.22 227.03 175.56L227.03 175.56Z" /><path class="shp12" d="M366.41 465.39C362.5 466.15 358.64 463.14 357.78 458.66C356.91 454.19 359.38 449.96 363.29 449.2C367.2 448.45 371.06 451.46 371.93 455.94C372.79 460.41 370.32 464.64 366.41 465.39Z" /><path class="shp13" d="M316.06 384.04L470 476.63L546.05 432.37L410.17 353.19" /><path class="shp14" d="M506.3 365.6L339.87 264.01C339.43 263.75 338.95 263.55 338.46 263.42C337.96 263.29 337.45 263.23 336.94 263.23C336.43 263.24 335.92 263.31 335.42 263.45C334.93 263.59 334.46 263.79 334.02 264.06C333.58 264.32 333.18 264.64 332.82 265.01C332.47 265.38 332.17 265.8 331.92 266.25C331.68 266.7 331.49 267.18 331.38 267.68C331.26 268.18 331.21 268.69 331.23 269.21L331.23 327.09C331.22 327.61 331.29 328.13 331.42 328.64C331.54 329.14 331.74 329.63 331.99 330.09C332.25 330.54 332.56 330.96 332.92 331.34C333.28 331.71 333.69 332.04 334.13 332.31L500.53 431.76C502.31 432.77 504.5 432.76 506.27 431.72C506.7 431.47 507.1 431.16 507.45 430.8C507.8 430.45 508.11 430.05 508.35 429.61C508.6 429.18 508.79 428.71 508.92 428.23C509.05 427.74 509.11 427.24 509.11 426.74L509.98 372.77C510.01 372.07 509.95 371.37 509.8 370.68C509.65 369.99 509.41 369.33 509.09 368.7C508.77 368.07 508.37 367.49 507.9 366.97C507.43 366.45 506.89 365.99 506.3 365.61L506.3 365.6Z" /><path class="shp11" d="M466.48 395.39C472.45 403.75 482.95 406.09 489.9 400.64C496.85 395.19 497.65 383.99 491.69 375.66C485.71 367.32 475.22 364.96 468.26 370.41C461.31 375.86 460.51 387.04 466.48 395.39L466.48 395.39Z" /><path class="shp15" d="M450.15 355.28L382.27 314.36C381.98 314.23 381.67 314.15 381.35 314.12C381.04 314.1 380.72 314.14 380.41 314.23C380.11 314.33 379.82 314.48 379.57 314.68C379.32 314.87 379.11 315.12 378.95 315.39C378.79 315.67 378.68 315.97 378.63 316.29C378.57 316.6 378.58 316.92 378.65 317.24C378.71 317.55 378.84 317.85 379.01 318.12C379.19 318.38 379.41 318.62 379.67 318.8L447.54 359.72C447.83 359.86 448.14 359.94 448.46 359.96C448.78 359.98 449.1 359.94 449.41 359.85C449.71 359.75 450 359.6 450.25 359.4C450.5 359.21 450.71 358.96 450.87 358.69C451.03 358.41 451.14 358.11 451.19 357.79C451.24 357.48 451.24 357.16 451.17 356.84C451.1 356.53 450.98 356.23 450.81 355.97C450.63 355.7 450.41 355.47 450.15 355.28L450.15 355.28ZM447.36 371.9L353.8 315.51C353.23 315.31 352.6 315.32 352.04 315.54C351.47 315.75 351 316.16 350.7 316.69C350.4 317.22 350.3 317.83 350.41 318.43C350.52 319.02 350.84 319.56 351.31 319.95L444.75 376.37C445.04 376.5 445.35 376.58 445.67 376.6C445.99 376.63 446.31 376.59 446.62 376.49C446.92 376.4 447.21 376.25 447.46 376.05C447.71 375.85 447.92 375.61 448.08 375.33C448.24 375.06 448.35 374.76 448.4 374.44C448.45 374.12 448.45 373.8 448.38 373.49C448.31 373.18 448.19 372.88 448.02 372.61C447.84 372.34 447.62 372.11 447.36 371.92L447.36 371.9L447.36 371.9Z" /><path class="shp10" d="M473.09 376.82L306.76 275.25C306.31 274.99 305.84 274.8 305.34 274.67C304.85 274.54 304.34 274.47 303.82 274.48C303.31 274.48 302.8 274.55 302.31 274.69C301.82 274.83 301.34 275.04 300.9 275.3C300.46 275.56 300.06 275.89 299.71 276.26C299.35 276.63 299.05 277.04 298.81 277.49C298.56 277.94 298.38 278.43 298.26 278.93C298.14 279.42 298.09 279.94 298.11 280.45L298.11 338.31C298.1 338.83 298.16 339.35 298.29 339.86C298.42 340.37 298.61 340.85 298.86 341.31C299.11 341.77 299.42 342.19 299.78 342.57C300.14 342.95 300.55 343.28 300.99 343.56L467.4 443C469.2 444.03 471.41 444.01 473.19 442.95C473.63 442.69 474.03 442.38 474.38 442.01C474.74 441.64 475.04 441.23 475.28 440.79C475.53 440.35 475.71 439.87 475.83 439.38C475.95 438.88 476.01 438.38 476 437.87L476.86 383.9C476.88 383.2 476.81 382.5 476.65 381.82C476.49 381.14 476.24 380.48 475.91 379.86C475.58 379.25 475.18 378.67 474.7 378.16C474.22 377.65 473.68 377.2 473.09 376.82L473.09 376.82Z" /><path class="shp11" d="M433.27 406.61C439.24 414.97 449.74 417.31 456.69 411.86C463.64 406.41 464.44 395.21 458.48 386.88C452.51 378.54 442.01 376.18 435.06 381.63C428.1 387.08 427.31 398.26 433.27 406.61Z" /><path class="shp15" d="M416.94 366.5L349.02 325.58C348.73 325.44 348.42 325.36 348.1 325.34C347.78 325.32 347.46 325.36 347.16 325.45C346.85 325.55 346.57 325.7 346.32 325.89C346.07 326.09 345.86 326.34 345.7 326.61C345.53 326.89 345.42 327.19 345.37 327.51C345.32 327.82 345.33 328.14 345.39 328.46C345.46 328.77 345.58 329.07 345.76 329.33C345.93 329.6 346.15 329.83 346.41 330.02L414.29 370.94C414.58 371.07 414.89 371.15 415.21 371.18C415.53 371.2 415.85 371.16 416.15 371.07C416.46 370.97 416.74 370.82 416.99 370.62C417.24 370.42 417.45 370.18 417.61 369.91C417.78 369.63 417.89 369.33 417.94 369.01C417.99 368.7 417.98 368.38 417.92 368.06C417.85 367.75 417.73 367.45 417.55 367.19C417.38 366.92 417.16 366.68 416.9 366.5L416.94 366.5L416.94 366.5ZM414.13 383.24L320.59 326.75C320.3 326.61 319.99 326.53 319.67 326.51C319.35 326.49 319.03 326.53 318.73 326.62C318.42 326.71 318.14 326.87 317.89 327.06C317.64 327.26 317.43 327.51 317.27 327.78C317.11 328.06 317 328.36 316.95 328.67C316.89 328.99 316.9 329.31 316.97 329.62C317.03 329.94 317.16 330.23 317.33 330.5C317.5 330.77 317.73 331 317.99 331.19L411.55 387.59C411.84 387.72 412.15 387.8 412.47 387.82C412.78 387.85 413.1 387.81 413.41 387.71C413.71 387.62 414 387.47 414.25 387.27C414.5 387.07 414.71 386.83 414.87 386.55C415.03 386.28 415.14 385.98 415.19 385.66C415.24 385.34 415.24 385.02 415.17 384.71C415.11 384.4 414.98 384.1 414.81 383.83C414.63 383.56 414.41 383.33 414.15 383.14L414.13 383.24L414.13 383.24Z" /><path class="shp6" d="M431.35 383.65L264.97 282.08C264.53 281.82 264.05 281.62 263.56 281.49C263.06 281.36 262.55 281.3 262.04 281.3C261.53 281.31 261.02 281.38 260.52 281.52C260.03 281.66 259.56 281.86 259.12 282.12C258.68 282.39 258.28 282.71 257.92 283.08C257.57 283.45 257.27 283.87 257.02 284.32C256.78 284.77 256.59 285.25 256.48 285.75C256.36 286.25 256.31 286.76 256.33 287.27L256.33 345.13C256.32 345.66 256.39 346.18 256.52 346.68C256.65 347.19 256.84 347.67 257.09 348.13C257.35 348.58 257.66 349 258.02 349.38C258.38 349.76 258.79 350.08 259.23 350.35L425.63 449.8C427.43 450.83 429.65 450.82 431.43 449.75C431.87 449.49 432.27 449.18 432.62 448.81C432.97 448.45 433.28 448.03 433.52 447.59C433.77 447.15 433.95 446.67 434.07 446.18C434.19 445.68 434.25 445.18 434.23 444.67L435.1 390.7C435.12 390 435.05 389.31 434.89 388.63C434.73 387.95 434.48 387.3 434.16 386.68C433.83 386.07 433.42 385.5 432.95 384.98C432.48 384.47 431.94 384.02 431.35 383.65L431.35 383.65Z" /><path class="shp6" d="M431.35 383.65L264.97 282.08C264.53 281.82 264.05 281.62 263.56 281.49C263.06 281.36 262.55 281.3 262.04 281.3C261.53 281.31 261.02 281.38 260.52 281.52C260.03 281.66 259.56 281.86 259.12 282.12C258.68 282.39 258.28 282.71 257.92 283.08C257.57 283.45 257.27 283.87 257.02 284.32C256.78 284.77 256.59 285.25 256.48 285.75C256.36 286.25 256.31 286.76 256.33 287.27L256.33 345.13C256.32 345.66 256.39 346.18 256.52 346.68C256.65 347.19 256.84 347.67 257.09 348.13C257.35 348.58 257.66 349 258.02 349.38C258.38 349.76 258.79 350.08 259.23 350.35L425.63 449.8C427.43 450.83 429.65 450.82 431.43 449.75C431.87 449.49 432.27 449.18 432.62 448.81C432.97 448.45 433.28 448.03 433.52 447.59C433.77 447.15 433.95 446.67 434.07 446.18C434.19 445.68 434.25 445.18 434.23 444.67L435.1 390.7C435.12 390 435.05 389.31 434.89 388.63C434.73 387.95 434.48 387.3 434.16 386.68C433.83 386.07 433.42 385.5 432.95 384.98C432.48 384.47 431.94 384.02 431.35 383.65L431.35 383.65Z" /><path class="shp11" d="M391.51 413.44C397.48 421.79 407.98 424.13 414.93 418.68C421.89 413.23 422.68 402.03 416.72 393.7C410.75 385.36 400.25 383.01 393.3 388.46C386.34 393.91 385.61 405.08 391.51 413.44L391.51 413.44Z" /><path class="shp15" d="M375.18 373.32L307.28 332.4C306.99 332.27 306.68 332.19 306.36 332.17C306.05 332.14 305.73 332.18 305.42 332.28C305.12 332.37 304.83 332.52 304.58 332.72C304.33 332.92 304.12 333.16 303.96 333.44C303.8 333.71 303.69 334.01 303.64 334.33C303.58 334.65 303.59 334.97 303.66 335.28C303.72 335.59 303.85 335.89 304.02 336.16C304.19 336.43 304.42 336.66 304.67 336.85L372.55 377.76C372.84 377.9 373.15 377.98 373.47 378C373.79 378.02 374.11 377.99 374.42 377.89C374.72 377.8 375.01 377.65 375.26 377.45C375.51 377.25 375.72 377.01 375.88 376.73C376.04 376.46 376.15 376.15 376.2 375.84C376.25 375.52 376.24 375.2 376.18 374.89C376.11 374.58 375.99 374.28 375.82 374.01C375.64 373.74 375.42 373.51 375.16 373.32L375.18 373.32L375.18 373.32ZM372.37 389.97L278.81 333.57C278.52 333.43 278.21 333.35 277.89 333.33C277.57 333.31 277.25 333.35 276.95 333.44C276.64 333.54 276.36 333.69 276.11 333.89C275.86 334.09 275.65 334.33 275.48 334.6C275.32 334.88 275.21 335.18 275.16 335.5C275.11 335.81 275.12 336.14 275.18 336.45C275.25 336.76 275.37 337.06 275.55 337.33C275.72 337.59 275.94 337.83 276.2 338.01L369.76 394.41C370.05 394.54 370.36 394.62 370.68 394.65C371 394.67 371.32 394.63 371.63 394.54C371.93 394.44 372.22 394.29 372.47 394.09C372.72 393.9 372.93 393.65 373.09 393.38C373.25 393.1 373.36 392.8 373.41 392.48C373.46 392.17 373.45 391.85 373.39 391.53C373.32 391.22 373.2 390.92 373.03 390.66C372.85 390.39 372.63 390.15 372.37 389.97L372.37 389.97Z" /><path class="shp16" d="M212.99 377.97C210.32 380.27 207.79 382.75 205.44 385.38C203.09 388.02 200.92 390.8 198.93 393.72C196.94 396.64 195.14 399.68 193.55 402.83C191.96 405.98 190.58 409.23 189.41 412.57C181.13 435.47 201.83 472.88 201.83 472.88L234.03 447.35" /><path class="shp17" d="M209.51 680.7L200.78 675.86L203.06 663.36C203.06 663.36 216.08 664.6 217.22 669.22" /><path class="shp10" d="M212.71 680.51C214.68 679.3 216.74 678.22 218.78 677.15C223.83 674.38 231.13 671.51 234.24 666.32C234.55 665.79 234.79 665.23 234.94 664.63C235.08 664.04 235.14 663.43 235.1 662.82C235.07 662.21 234.94 661.61 234.72 661.03C234.5 660.46 234.2 659.93 233.82 659.45C229.25 653.9 219.23 663.02 214.11 656.88C213.1 655.67 212.62 636.41 212.62 636.41L193.14 641.68C193.14 641.68 189.84 680.37 190.21 682.76C190.58 685.14 197.28 687.34 197.28 687.34C197.78 687.23 198.27 687.1 198.75 686.95C199.24 686.8 199.72 686.63 200.19 686.44C200.66 686.25 201.13 686.04 201.58 685.8C202.03 685.57 202.47 685.32 202.9 685.05C204.94 683.56 203.09 665.4 205.69 667.94C208.3 670.48 209.44 680.42 209.44 680.42C210.53 680.58 211.62 680.62 212.71 680.51L212.71 680.51Z" /><path class="shp17" d="M246.72 699.4L237.99 694.64L240.27 682.14C240.27 682.14 253.29 683.37 254.43 688" /><path class="shp10" d="M250.01 699.22C251.98 698 254.04 696.93 256.08 695.85C261.13 693.08 268.43 690.22 271.54 685.02C271.85 684.5 272.09 683.93 272.24 683.34C272.38 682.75 272.44 682.13 272.4 681.52C272.37 680.91 272.24 680.31 272.02 679.74C271.8 679.17 271.5 678.63 271.13 678.15C266.55 672.61 256.53 681.73 251.41 675.59C250.4 674.38 249.92 655.12 249.92 655.12L230.44 660.38C230.44 660.38 227.12 699.22 227.49 701.51C227.86 703.8 234.55 706.09 234.55 706.09C235.05 705.98 235.55 705.85 236.03 705.71C236.52 705.56 237 705.38 237.47 705.19C237.94 705 238.4 704.79 238.86 704.56C239.31 704.32 239.75 704.07 240.18 703.8C242.22 702.31 240.36 684.15 242.97 686.7C245.58 689.24 246.72 699.17 246.72 699.17C246.99 699.21 247.27 699.24 247.54 699.26C247.82 699.28 248.09 699.29 248.37 699.3C248.64 699.3 248.92 699.3 249.19 699.28C249.47 699.27 249.74 699.25 250.01 699.22Z" /><path class="shp18" d="M183.24 573.6L177.49 650.47C177.49 650.47 186.64 663.11 217.31 656.08L217.61 604.26M218.66 588.83C218 595.45 218.66 668.45 218.66 668.45C218.66 668.45 227.14 684.34 264.08 668.45L263.55 606.42" /><path class="shp18" d="M180.38 599C182.89 600.74 183.76 591.78 186.39 593.32C188.78 594.71 191.21 596.03 193.67 597.29C196.13 598.54 198.63 599.73 201.16 600.85C203.69 601.96 206.25 603.01 208.83 603.98C211.42 604.96 214.03 605.86 216.67 606.69L216.9 606.69C217.15 606.57 217.42 606.5 217.7 606.48C217.98 606.47 218.26 606.51 218.52 606.61C218.79 606.7 219.03 606.85 219.23 607.04C219.44 607.23 219.6 607.47 219.71 607.72C221.34 608.21 222.98 608.67 224.62 609.1C226.27 609.54 227.92 609.95 229.58 610.33C231.23 610.71 232.9 611.06 234.57 611.39C236.24 611.72 237.91 612.02 239.59 612.3C248.21 613.67 255.34 607.29 264.19 606.85C264.19 572.92 264.36 476.34 249.92 455.73L207.23 441.35C207.02 444.88 186.51 468.69 187.01 497.72C187.58 530.44 183.33 561.31 182.59 571.54C182.48 573.28 180.47 597.14 180.38 599L180.38 599Z" /><path class="shp16" d="M253.86 416.71L249.92 455.64C249.92 455.64 218.07 456.92 204.34 447.44L204.34 414.42" /><path class="shp19" d="M294.36 391.09L291.11 395.53C292.84 391.92 294.37 388.21 295.69 384.43C296.6 381.84 292.46 380.81 291.55 383.4L291.07 384.72C291.46 383.35 291.84 381.97 292.19 380.58C292.33 380.03 292.25 379.44 291.96 378.95C291.67 378.45 291.2 378.1 290.64 377.96C290.09 377.82 289.5 377.91 289.01 378.21C288.52 378.51 288.18 378.99 288.05 379.55C287.82 380.45 287.59 381.34 287.34 382.23C287.09 383.13 286.84 384.02 286.57 384.9C286.3 385.79 286.02 386.67 285.73 387.55C285.44 388.43 285.14 389.3 284.82 390.17C285 389.4 285.16 388.62 285.31 387.85C285.46 387.07 285.6 386.29 285.73 385.5C285.85 384.72 285.97 383.93 286.07 383.15C286.17 382.36 286.26 381.57 286.33 380.78C286.61 378.06 282.33 378.18 282.08 380.78C281.99 381.68 281.88 382.58 281.76 383.47C281.63 384.37 281.49 385.26 281.33 386.15C281.17 387.04 280.99 387.92 280.8 388.8C280.6 389.68 280.39 390.56 280.16 391.43C280.16 390.21 280.04 388.99 279.82 387.77C279.8 387.62 279.77 387.47 279.72 387.32C279.67 387.18 279.61 387.04 279.53 386.91C279.46 386.77 279.37 386.65 279.26 386.54C279.16 386.42 279.05 386.32 278.92 386.23C278.89 386.11 278.86 386 278.83 385.88C278.8 385.76 278.77 385.64 278.73 385.52C278.7 385.4 278.66 385.28 278.63 385.17C278.59 385.05 278.55 384.93 278.51 384.82C278.35 384.34 278.03 383.93 277.59 383.66C277.16 383.4 276.65 383.3 276.15 383.38C275.65 383.45 275.19 383.7 274.86 384.08C274.52 384.47 274.34 384.95 274.33 385.46L274.05 401.49C273.28 403.15 272.27 404.69 271.06 406.06C271.57 406.42 272.08 406.78 272.59 407.15C273.09 407.52 273.59 407.9 274.09 408.28C274.58 408.66 275.07 409.05 275.56 409.44C276.05 409.84 276.53 410.24 277 410.64C277.43 411 277.85 411.37 278.26 411.74C278.68 412.11 279.08 412.49 279.49 412.87C279.89 413.25 280.29 413.64 280.69 414.03C281.08 414.42 281.47 414.82 281.85 415.22C282.19 414.8 282.53 414.37 282.87 413.94C283.2 413.51 283.54 413.08 283.87 412.64C284.19 412.21 284.52 411.77 284.85 411.33C285.17 410.89 285.49 410.45 285.81 410C285.96 409.87 286.1 409.72 286.22 409.54C287.17 408.13 288.13 406.73 289.1 405.33C290.07 403.93 291.04 402.53 292.03 401.14C293.01 399.75 294 398.37 295 396.99C296 395.61 297.01 394.24 298.02 392.88C299.71 391 295.98 388.91 294.36 391.09L294.36 391.09Z" /><path class="shp16" d="M233.64 381.22C233.64 381.22 248.69 385.27 254.8 394.96C255.75 396.63 256.68 398.33 257.58 400.03C258.48 401.74 259.35 403.46 260.19 405.2C261.03 406.93 261.84 408.68 262.62 410.45C263.41 412.21 264.16 413.99 264.88 415.77L276 398.48C276 398.48 289.49 402.63 294.84 409.27C294.84 409.27 278.83 444.3 264.88 447.3C250.93 450.3 236.11 426.74 236.11 426.74C236.11 426.74 233.05 436.59 233.64 426.08" /><path class="shp20" d="M248.2 418.66C247.11 417.77 246.09 416.81 245.13 415.79C244.18 414.76 243.29 413.67 242.49 412.52C241.68 411.37 240.96 410.17 240.32 408.92C239.68 407.67 239.13 406.38 238.66 405.06C236.86 398.9 239.12 393.49 241.22 387.77C241.79 386.35 242.3 384.92 242.75 383.46C243.2 382 243.59 380.53 243.92 379.04C244.25 377.55 244.52 376.04 244.73 374.53C244.93 373.02 245.08 371.5 245.16 369.98C245.34 363.98 244.66 357.98 244.24 352C244.23 351.94 244.22 351.87 244.21 351.81C244.2 351.74 244.2 351.68 244.2 351.61C244.2 351.55 244.2 351.48 244.21 351.42C244.22 351.35 244.23 351.29 244.24 351.22C242.23 344.47 238.11 338.75 230 338.06C208.98 336.27 207.79 359.58 207.95 369.06C208.11 378.54 209.12 384.95 202.14 388.91C195.16 392.88 190.13 403.27 196.79 411.68C203.44 420.08 197.47 417.01 193.04 424.47C188.6 431.94 189.74 441.26 198.85 444.62C207.95 447.99 250.26 441.67 254.15 437.75C254.49 437.36 254.79 436.94 255.05 436.49C255.31 436.05 255.53 435.57 255.7 435.09C255.87 434.6 255.99 434.09 256.06 433.58C256.14 433.07 256.16 432.55 256.14 432.03C255.9 430.73 255.55 429.45 255.09 428.21C254.63 426.96 254.05 425.77 253.38 424.63C252.7 423.49 251.92 422.41 251.06 421.41C250.19 420.41 249.23 419.49 248.2 418.66L248.2 418.66Z" /><path fill-rule="evenodd" class="shp10" d="M266.26 230.41C266.96 231.79 267.56 233.23 268.06 234.7C268.56 236.17 268.96 237.67 269.26 239.19C269.55 240.72 269.74 242.26 269.82 243.81C269.92 244.52 269.95 245.23 269.92 245.95C269.88 246.66 269.78 247.37 269.62 248.06C269.45 248.75 269.22 249.43 268.93 250.08C268.64 250.73 268.29 251.36 267.88 251.94C267.53 252.32 267.12 252.65 266.67 252.9C266.21 253.15 265.72 253.32 265.21 253.41C264.7 253.5 264.18 253.5 263.67 253.42C263.16 253.34 262.66 253.17 262.2 252.93C261.92 252.81 261.63 252.68 261.36 252.54C261.09 252.39 260.82 252.23 260.56 252.06C260.31 251.89 260.06 251.7 259.82 251.5C259.58 251.3 259.36 251.09 259.14 250.87C258.95 250.68 258.76 250.5 258.58 250.3C258.4 250.1 258.23 249.9 258.06 249.69C257.9 249.48 257.74 249.27 257.59 249.05C257.45 248.83 257.31 248.6 257.17 248.37L256.63 247.29C256.59 247.36 256.55 247.43 256.51 247.5C256.47 247.57 256.42 247.64 256.38 247.7C256.33 247.77 256.28 247.83 256.23 247.89C256.18 247.95 256.13 248.01 256.08 248.07C255.94 248.18 255.8 248.27 255.65 248.36C255.5 248.45 255.35 248.53 255.19 248.59C255.03 248.66 254.87 248.72 254.7 248.77C254.54 248.81 254.37 248.85 254.2 248.87C253.92 248.93 253.63 248.96 253.34 248.97C253.05 248.98 252.76 248.96 252.48 248.93C252.19 248.89 251.91 248.84 251.63 248.76C251.35 248.68 251.08 248.58 250.82 248.46C250.19 248.19 249.59 247.87 249.01 247.5C248.44 247.13 247.89 246.72 247.38 246.26C246.87 245.8 246.4 245.31 245.97 244.77C245.55 244.24 245.16 243.68 244.82 243.08C244.42 242.43 244.05 241.76 243.73 241.06C243.41 240.37 243.14 239.65 242.92 238.92C242.69 238.19 242.52 237.44 242.39 236.69C242.27 235.93 242.19 235.17 242.17 234.4C242.09 233.79 242.07 233.17 242.12 232.55C242.17 231.93 242.29 231.32 242.47 230.73C242.66 230.14 242.91 229.57 243.21 229.03C243.52 228.5 243.88 227.99 244.3 227.53C244.66 227.19 245.07 226.9 245.52 226.67C245.97 226.45 246.45 226.3 246.94 226.22C247.43 226.14 247.94 226.14 248.43 226.22C248.93 226.29 249.41 226.44 249.86 226.66C250.77 227.03 251.62 227.56 252.35 228.22C252.97 228.75 253.52 229.36 253.99 230.03L254.4 230.76L254.4 228.72L258.98 230.51L259.44 243.38C259.47 244.3 259.76 245.19 260.26 245.97C260.69 246.71 261.35 247.3 262.14 247.64C264.35 248.51 265.37 246.6 265.2 241.91C265.14 240.76 265.01 239.61 264.79 238.48C264.57 237.34 264.28 236.23 263.9 235.13C263.53 234.04 263.08 232.98 262.56 231.95C262.04 230.92 261.45 229.92 260.79 228.98C260.2 228.01 259.53 227.1 258.8 226.24C258.06 225.38 257.26 224.58 256.4 223.85C255.54 223.12 254.63 222.45 253.67 221.86C252.71 221.27 251.7 220.76 250.66 220.32C249.9 219.94 249.09 219.67 248.25 219.52C247.41 219.37 246.55 219.35 245.71 219.46C244.87 219.57 244.04 219.8 243.27 220.15C242.5 220.51 241.78 220.97 241.14 221.54C240.46 222.22 239.86 222.98 239.35 223.8C238.83 224.62 238.41 225.49 238.1 226.41C237.78 227.32 237.57 228.26 237.46 229.22C237.35 230.18 237.35 231.15 237.46 232.11C237.52 233.33 237.67 234.55 237.9 235.75C238.13 236.95 238.43 238.13 238.82 239.29C239.21 240.45 239.67 241.58 240.21 242.68C240.74 243.78 241.35 244.84 242.03 245.85C242.57 246.85 243.19 247.81 243.88 248.71C244.58 249.61 245.34 250.45 246.17 251.23C247 252 247.89 252.71 248.83 253.35C249.77 253.98 250.77 254.54 251.8 255.01C253.25 255.62 254.8 255.92 256.37 255.9C256.63 255.92 256.88 255.92 257.14 255.91C257.39 255.89 257.64 255.86 257.89 255.82C258.14 255.77 258.39 255.71 258.63 255.63C258.88 255.55 259.12 255.46 259.35 255.35L260.26 254.85L263.03 260L262.57 260.32C262.46 260.38 262.35 260.44 262.24 260.5C262.13 260.56 262.02 260.61 261.91 260.67C261.79 260.72 261.68 260.77 261.57 260.82C261.45 260.87 261.34 260.92 261.22 260.96C260.49 261.28 259.72 261.5 258.93 261.61C258.68 261.64 258.43 261.67 258.18 261.68C257.92 261.7 257.67 261.71 257.41 261.71C257.16 261.71 256.91 261.7 256.65 261.68C256.4 261.67 256.15 261.64 255.89 261.61C255.56 261.57 255.23 261.52 254.91 261.46C254.58 261.39 254.25 261.32 253.93 261.24C253.61 261.16 253.29 261.06 252.97 260.96C252.65 260.86 252.34 260.74 252.03 260.62C251.15 260.24 250.3 259.82 249.47 259.34C248.64 258.87 247.84 258.34 247.07 257.78C246.3 257.21 245.56 256.6 244.86 255.95C244.16 255.3 243.5 254.61 242.88 253.89C242.14 253.07 241.44 252.22 240.77 251.35C240.1 250.47 239.47 249.57 238.88 248.64C238.28 247.71 237.73 246.76 237.21 245.79C236.7 244.81 236.22 243.82 235.79 242.81C235.36 241.84 234.97 240.85 234.63 239.85C234.29 238.85 233.99 237.83 233.75 236.8C233.5 235.76 233.31 234.72 233.16 233.67C233.01 232.62 232.91 231.57 232.86 230.51C232.62 226.94 233.34 223.37 234.97 220.18C235.3 219.52 235.7 218.9 236.15 218.31C236.6 217.72 237.11 217.18 237.66 216.69C238.22 216.2 238.82 215.77 239.45 215.39C240.09 215.02 240.76 214.71 241.46 214.46C242.19 214.22 242.94 214.04 243.71 213.94C244.47 213.84 245.24 213.81 246.01 213.85C246.78 213.89 247.54 214 248.29 214.18C249.04 214.36 249.77 214.6 250.47 214.92C251.85 215.5 253.18 216.19 254.45 216.98C255.72 217.76 256.93 218.65 258.07 219.62C259.2 220.6 260.26 221.66 261.23 222.79C262.21 223.93 263.09 225.14 263.88 226.41C264.76 227.69 265.56 229.02 266.26 230.41ZM254.73 239.3C254.72 238.93 254.68 238.56 254.63 238.19C254.57 237.83 254.49 237.46 254.39 237.11C254.29 236.75 254.16 236.4 254.02 236.06C253.87 235.72 253.7 235.39 253.51 235.07C253.36 234.79 253.18 234.52 252.99 234.27C252.79 234.03 252.57 233.79 252.34 233.58C252.1 233.37 251.85 233.17 251.59 233C251.32 232.83 251.04 232.68 250.75 232.55C250.52 232.43 250.28 232.35 250.03 232.31C249.79 232.26 249.53 232.26 249.28 232.29C249.03 232.32 248.79 232.39 248.56 232.5C248.33 232.61 248.12 232.75 247.93 232.91C247.74 233.14 247.56 233.38 247.42 233.64C247.27 233.9 247.16 234.18 247.07 234.47C246.99 234.75 246.93 235.05 246.91 235.34C246.88 235.64 246.89 235.94 246.93 236.23C246.98 237.75 247.43 239.21 248.23 240.49C248.89 241.66 249.91 242.57 251.14 243.1C251.35 243.21 251.58 243.29 251.81 243.33C252.05 243.36 252.29 243.37 252.53 243.33C252.77 243.29 253 243.22 253.21 243.11C253.42 243 253.62 242.86 253.79 242.69C254.54 241.73 254.88 240.51 254.73 239.3ZM536.29 478.34C536.99 479.73 537.59 481.16 538.09 482.63C538.6 484.1 538.99 485.6 539.29 487.13C539.58 488.65 539.77 490.19 539.85 491.75C539.95 492.45 539.98 493.17 539.94 493.88C539.91 494.59 539.81 495.3 539.64 495.99C539.48 496.69 539.25 497.36 538.96 498.02C538.66 498.67 538.31 499.29 537.9 499.87C537.56 500.26 537.15 500.58 536.69 500.83C536.24 501.07 535.75 501.25 535.24 501.33C534.73 501.42 534.21 501.43 533.7 501.35C533.18 501.27 532.69 501.1 532.23 500.86C531.95 500.74 531.66 500.61 531.39 500.47C531.12 500.32 530.85 500.16 530.59 499.99C530.34 499.82 530.09 499.63 529.85 499.43C529.61 499.23 529.38 499.02 529.17 498.8C528.98 498.62 528.79 498.43 528.61 498.23C528.43 498.03 528.26 497.83 528.09 497.62C527.93 497.41 527.77 497.2 527.62 496.98C527.47 496.76 527.33 496.53 527.2 496.3L526.65 495.23C526.5 495.51 526.31 495.77 526.1 496.01C525.56 496.43 524.91 496.71 524.23 496.81C523.95 496.86 523.66 496.9 523.38 496.91C523.09 496.92 522.8 496.91 522.52 496.88C522.23 496.85 521.95 496.79 521.67 496.71C521.4 496.64 521.13 496.54 520.87 496.42C520.24 496.14 519.63 495.82 519.06 495.45C518.48 495.08 517.94 494.66 517.43 494.2C516.92 493.75 516.45 493.25 516.02 492.71C515.59 492.18 515.21 491.61 514.87 491.01C514.46 490.37 514.09 489.69 513.77 488.99C513.45 488.3 513.18 487.58 512.95 486.84C512.72 486.11 512.55 485.36 512.42 484.6C512.3 483.85 512.22 483.08 512.2 482.31C512.11 481.7 512.09 481.08 512.14 480.46C512.19 479.84 512.31 479.23 512.49 478.64C512.68 478.05 512.92 477.48 513.23 476.94C513.54 476.4 513.91 475.9 514.33 475.44C514.68 475.1 515.09 474.81 515.54 474.58C515.98 474.36 516.46 474.21 516.95 474.13C517.45 474.06 517.95 474.05 518.44 474.13C518.93 474.2 519.41 474.35 519.86 474.57C520.78 474.94 521.62 475.46 522.35 476.13C522.98 476.67 523.53 477.29 524 477.96L524.43 478.69L524.43 476.66L529.01 478.42L529.47 491.29C529.51 492.21 529.79 493.1 530.29 493.88C530.72 494.62 531.38 495.21 532.16 495.55C534.45 496.42 535.39 494.52 535.25 489.82C535.19 488.67 535.06 487.52 534.84 486.38C534.62 485.25 534.33 484.13 533.95 483.03C533.58 481.94 533.13 480.87 532.61 479.84C532.09 478.81 531.5 477.81 530.84 476.86C530.25 475.9 529.58 474.99 528.85 474.14C528.11 473.28 527.32 472.49 526.46 471.75C525.6 471.02 524.69 470.36 523.73 469.77C522.77 469.18 521.77 468.67 520.73 468.23C519.97 467.85 519.16 467.57 518.32 467.43C517.49 467.28 516.63 467.26 515.79 467.37C514.95 467.47 514.12 467.7 513.35 468.05C512.57 468.4 511.85 468.86 511.21 469.42C510.54 470.12 509.94 470.88 509.43 471.71C508.93 472.54 508.51 473.42 508.2 474.34C507.89 475.25 507.69 476.21 507.59 477.17C507.49 478.13 507.51 479.11 507.63 480.07C507.69 481.29 507.83 482.5 508.06 483.7C508.29 484.9 508.6 486.09 508.98 487.25C509.37 488.41 509.83 489.54 510.37 490.63C510.91 491.73 511.52 492.79 512.2 493.81C512.76 494.78 513.4 495.71 514.1 496.59C514.81 497.46 515.59 498.28 516.43 499.03C517.26 499.78 518.16 500.47 519.11 501.07C520.05 501.68 521.05 502.22 522.08 502.67C522.44 502.82 522.81 502.95 523.18 503.07C523.56 503.18 523.94 503.28 524.32 503.35C524.7 503.43 525.09 503.49 525.48 503.53C525.87 503.56 526.26 503.58 526.65 503.58C526.91 503.6 527.16 503.6 527.42 503.58C527.67 503.57 527.92 503.54 528.17 503.49C528.42 503.44 528.67 503.38 528.91 503.31C529.15 503.23 529.39 503.14 529.62 503.03L530.54 502.53L533.31 507.68L532.85 508C532.74 508.07 532.63 508.12 532.52 508.18C532.41 508.24 532.3 508.29 532.19 508.35C532.07 508.4 531.96 508.45 531.85 508.5C531.73 508.55 531.62 508.6 531.5 508.64C530.77 508.95 530 509.16 529.21 509.29C528.96 509.32 528.71 509.34 528.45 509.36C528.19 509.38 527.94 509.39 527.68 509.39C527.43 509.39 527.17 509.38 526.91 509.36C526.66 509.34 526.4 509.32 526.15 509.29C525.82 509.24 525.49 509.19 525.17 509.13C524.84 509.07 524.52 508.99 524.2 508.91C523.87 508.82 523.56 508.73 523.24 508.62C522.93 508.52 522.61 508.4 522.31 508.28C521.43 507.9 520.58 507.48 519.75 507C518.92 506.53 518.12 506.01 517.35 505.45C516.58 504.88 515.84 504.27 515.14 503.63C514.44 502.98 513.78 502.29 513.16 501.57C512.42 500.75 511.72 499.9 511.05 499.02C510.38 498.14 509.75 497.24 509.15 496.31C508.56 495.38 508.01 494.43 507.49 493.45C506.98 492.48 506.5 491.48 506.07 490.46C505.64 489.5 505.25 488.51 504.91 487.51C504.57 486.5 504.27 485.48 504.03 484.45C503.78 483.42 503.59 482.38 503.44 481.33C503.29 480.28 503.19 479.23 503.14 478.17C503.08 477.28 503.08 476.39 503.14 475.51C503.2 474.62 503.31 473.74 503.49 472.87C503.67 472 503.91 471.15 504.2 470.31C504.49 469.47 504.84 468.65 505.25 467.86C505.58 467.2 505.98 466.57 506.43 465.99C506.88 465.4 507.39 464.86 507.94 464.37C508.5 463.88 509.1 463.44 509.73 463.06C510.37 462.68 511.04 462.37 511.74 462.12C512.47 461.88 513.23 461.71 513.99 461.61C514.76 461.5 515.53 461.47 516.3 461.51C517.07 461.55 517.83 461.66 518.59 461.84C519.34 462.02 520.07 462.26 520.77 462.58C522.14 463.19 523.45 463.91 524.7 464.72C525.95 465.54 527.14 466.45 528.25 467.44C529.36 468.44 530.4 469.52 531.34 470.68C532.29 471.83 533.14 473.06 533.9 474.34C534.79 475.62 535.59 476.95 536.29 478.34ZM524.3 489.87C524.44 489.6 524.55 489.32 524.63 489.03C524.72 488.74 524.77 488.44 524.79 488.14C524.82 487.84 524.81 487.53 524.78 487.23C524.77 486.86 524.73 486.49 524.68 486.13C524.62 485.76 524.54 485.39 524.43 485.04C524.33 484.68 524.2 484.33 524.05 483.99C523.9 483.65 523.73 483.32 523.54 483C523.39 482.72 523.22 482.46 523.02 482.21C522.83 481.96 522.61 481.72 522.38 481.51C522.15 481.3 521.9 481.1 521.63 480.93C521.37 480.76 521.09 480.61 520.8 480.48C520.57 480.36 520.34 480.28 520.09 480.24C519.84 480.19 519.59 480.18 519.34 480.21C519.09 480.24 518.84 480.31 518.61 480.42C518.39 480.52 518.17 480.66 517.99 480.82C517.78 481.05 517.61 481.29 517.46 481.55C517.31 481.81 517.19 482.09 517.11 482.37C517.02 482.66 516.96 482.95 516.93 483.25C516.91 483.55 516.92 483.85 516.96 484.14C517.01 485.65 517.46 487.11 518.26 488.38C518.92 489.55 519.94 490.47 521.16 491.01C521.37 491.12 521.6 491.2 521.84 491.24C522.07 491.28 522.32 491.28 522.55 491.25C522.79 491.21 523.02 491.14 523.23 491.04C523.45 490.93 523.64 490.79 523.82 490.62C524 490.39 524.17 490.13 524.3 489.87Z" /><path class="shp21" d="M78.15 571.98L0.73 527.88L-76.66 572.07C-76.66 572.07 -33.6 598.99 4.94 621.62C29.41 604.31 51.16 584.5 78.15 571.98L78.15 571.98Z" /></g></svg>